<?xml version="1.0" encoding="UTF-8"?>
<!-- Generated by Pixelmator Pro 3.6.11 -->
<svg width="22" height="23" viewBox="0 0 22 23" xmlns="http://www.w3.org/2000/svg">
    <path id="Trac" fill="none" stroke="#000000" stroke-width="2" stroke-linecap="round" stroke-linejoin="round" d="M 11 14.8982 L 11.0082 14.8982"/>
    <path id="path1" fill="none" stroke="#000000" stroke-width="1.5" stroke-linecap="round" stroke-linejoin="round" d="M 11 12.1483 L 11 7.564939"/>
    <path id="path2" fill="none" stroke="#000000" stroke-width="1.5" d="M 13.89 4.158649 C 12.8139 3.7593 12.3361 2.16094 11.1097 2.06904 L 10.8907 2.06904 C 9.66424 2.16095 9.18648 3.759211 8.1104 4.158649 C 6.971 4.581409 5.41303 3.71483 4.44824 4.67963 C 3.51962 5.60824 4.34137 7.22571 3.92727 8.34179 C 3.50393 9.48215 1.73365 9.95387 1.83765 11.3412 C 1.92956 12.5676 3.52791 13.0453 3.92727 14.1214 C 4.34139 15.2374 3.51957 16.855 4.44824 17.7836 C 5.41289 18.7484 6.97097 17.882099 8.1104 18.304501 C 9.1862 18.7045 9.66443 20.302401 10.8907 20.394199 L 11.1097 20.394199 C 12.336 20.302401 12.8143 18.704399 13.89 18.304501 C 15.0061 17.890699 16.6238 18.712299 17.5522 17.7836 C 18.548901 16.7871 17.5886 15.1715 18.115101 14.0201 C 18.6017 12.96 20.264 12.4635 20.162701 11.1221 C 20.070999 9.89584 18.473 9.41753 18.073099 8.34179 C 17.6507 7.202351 18.517 5.644279 17.5522 4.67963 C 16.5875 3.71479 15.0294 4.58144 13.89 4.158649 Z"/>
</svg>
