<?xml version="1.0" encoding="UTF-8"?>
<!-- Generated by Pixelmator Pro 3.6.11 -->
<svg width="24" height="24" viewBox="0 0 24 24" xmlns="http://www.w3.org/2000/svg">
    <path id="Trac" fill="none" stroke="#000000" stroke-width="1.5" stroke-linecap="round" d="M 2.96875 10.4961 L 2.96875 15.4979 C 2.96875 18.327299 2.96875 19.742001 3.84743 20.621 C 4.72611 21.500099 6.14032 21.500099 8.96875 21.500099 L 14.9688 21.500099 C 17.7971 21.500099 19.2113 21.500099 20.09 20.621 C 20.9687 19.742001 20.9688 18.327299 20.9688 15.4979 L 20.9688 10.4961"/>
    <path id="path1" fill="none" stroke="#000000" stroke-width="1.5" stroke-linecap="round" d="M 14.9688 16.9932 C 14.2847 17.600401 13.1955 17.9932 11.9688 17.9932 C 10.742 17.9932 9.65284 17.600401 8.96875 16.9932"/>
    <path id="path2" fill="none" stroke="#000000" stroke-width="1.5" stroke-linecap="round" stroke-linejoin="round" d="M 10.1038 8.41848 C 9.82182 9.43688 8.79628 11.1936 6.84777 11.4482 C 5.12733 11.673 3.82246 10.922 3.48916 10.608 L 2.07906 9.02952 C 1.87395 8.52032 2.11324 7.417061 2.28416 6.96726 L 3.92501 2.91913 C 4.32533 2.521601 5.13581 2.504299 5.4694 2.504299 L 19.000299 2.504311 C 19.779699 2.52039 20.2481 3.173729 20.3848 3.453791 C 21.547701 6.270611 22 7.88382 22 8.57124 C 21.8482 9.30456 21.219999 10.6873 19.000299 11.2955 C 16.6933 11.9275 15.3854 10.6981 14.9751 10.2261 M 9.15522 10.2261 C 9.47997 10.625 10.4987 11.4279 11.9754 11.4482 C 13.4522 11.4686 14.7273 10.4383 15.1802 9.92062 L 15.8725 8.41848"/>
</svg>
