<?xml version="1.0" encoding="UTF-8"?>
<!-- Generated by Pixelmator Pro 3.6.11 -->
<svg width="25" height="24" viewBox="0 0 25 24" xmlns="http://www.w3.org/2000/svg">
    <path id="Trac" fill="none" stroke="#000000" stroke-width="1.5" stroke-linecap="round" stroke-linejoin="round" d="M 15.5183 9.43337 L 17.4291 10.9758 C 18.041 11.0787 18.184999 11.5263 17.743999 11.9678 L 17.0571 14.1938 C 17.2251 14.9288 16.8381 15.2131 16.193199 14.829 L 15.2963 14.2937 L 13.8055 14.829 C 13.1636 15.2131 12.7736 14.9258 12.9416 14.1938 L 12.2547 11.9678 C 11.8167 11.5263 11.9577 11.0787 12.5696 10.9758 L 14.4774 9.43337 C 14.7654 8.8557 15.2333 8.8557 15.5183 9.43337 Z"/>
    <path id="path1" fill="none" stroke="#000000" stroke-width="1.5" stroke-linecap="round" stroke-linejoin="round" d="M 8.5 17 L 8.5 20.5"/>
    <path id="path2" fill="none" stroke="#000000" stroke-width="1.5" stroke-linecap="round" stroke-linejoin="round" d="M 8.5 3.5 L 8.5 7"/>
    <path id="path3" fill="none" stroke="#000000" stroke-width="1.5" stroke-linejoin="round" d="M 22.499599 8.87895 C 22.432699 7.33687 22.245199 6.332981 21.7199 5.538839 L 20.6108 4.364679 C 19.4443 3.5 17.798599 3.5 14.5074 3.5 L 10.4926 3.5 C 7.20136 3.5 5.55573 3.5 4.38921 4.364679 L 3.28006 5.538839 C 2.75485 6.33289 2.56735 7.336651 2.50042 8.87843 L 2.9649 9.34375 C 4.35068 9.34375 5.47408 10.533 5.47408 12 C 5.47408 13.467 4.35068 14.6562 2.9649 14.6562 L 2.50042 15.1216 C 2.56735 16.663401 2.75485 17.667101 3.28006 18.461201 L 4.38921 19.6353 C 5.55573 20.5 7.20137 20.5 10.4926 20.5 L 14.5074 20.5 C 17.798599 20.5 19.4443 20.5 20.6108 19.6353 L 21.7199 18.461201 C 22.245199 17.667 22.432699 16.663099 22.499599 15.1211 L 22.499599 8.87895 Z"/>
</svg>
