<svg width="24" height="25" viewBox="0 0 24 25" fill="none" xmlns="http://www.w3.org/2000/svg">
<path d="M11.1075 6.07624C11.3692 6.52707 11.5 6.75248 11.5 7C11.5 7.24752 11.3692 7.47293 11.1075 7.92376L9.85804 10.0762C9.59636 10.5271 9.46551 10.7525 9.25 10.8762C9.03449 11 8.7728 11 8.24943 11H5.75057C5.2272 11 4.96551 11 4.75 10.8762C4.53449 10.7525 4.40364 10.5271 4.14196 10.0762L2.89253 7.92376C2.63084 7.47293 2.5 7.24752 2.5 7C2.5 6.75248 2.63084 6.52707 2.89253 6.07624L4.14196 3.92376C4.40364 3.47293 4.53449 3.24752 4.75 3.12376C4.96551 3 5.2272 3 5.75057 3H8.24943C8.7728 3 9.03449 3 9.25 3.12376C9.46551 3.24752 9.59636 3.47293 9.85804 3.92376L11.1075 6.07624Z" stroke="#000A04" stroke-width="1.5" stroke-linecap="round" stroke-linejoin="round"/>
<path d="M21.1075 12.0762C21.3692 12.5271 21.5 12.7525 21.5 13C21.5 13.2475 21.3692 13.4729 21.1075 13.9238L19.858 16.0762C19.5964 16.5271 19.4655 16.7525 19.25 16.8762C19.0345 17 18.7728 17 18.2494 17H15.7506C15.2272 17 14.9655 17 14.75 16.8762C14.5345 16.7525 14.4036 16.5271 14.142 16.0762L12.8925 13.9238C12.6308 13.4729 12.5 13.2475 12.5 13C12.5 12.7525 12.6308 12.5271 12.8925 12.0762L14.142 9.92376C14.4036 9.47293 14.5345 9.24752 14.75 9.12376C14.9655 9 15.2272 9 15.7506 9H18.2494C18.7728 9 19.0345 9 19.25 9.12376C19.4655 9.24752 19.5964 9.47293 19.858 9.92376L21.1075 12.0762Z" stroke="#000A04" stroke-width="1.5" stroke-linecap="round" stroke-linejoin="round"/>
<path d="M11.1075 17.0762C11.3692 17.5271 11.5 17.7525 11.5 18C11.5 18.2475 11.3692 18.4729 11.1075 18.9238L9.85804 21.0762C9.59636 21.5271 9.46551 21.7525 9.25 21.8762C9.03449 22 8.7728 22 8.24943 22H5.75057C5.2272 22 4.96551 22 4.75 21.8762C4.53449 21.7525 4.40364 21.5271 4.14196 21.0762L2.89253 18.9238C2.63084 18.4729 2.5 18.2475 2.5 18C2.5 17.7525 2.63084 17.5271 2.89253 17.0762L4.14196 14.9238C4.40364 14.4729 4.53449 14.2475 4.75 14.1238C4.96551 14 5.2272 14 5.75057 14H8.24943C8.7728 14 9.03449 14 9.25 14.1238C9.46551 14.2475 9.59636 14.4729 9.85804 14.9238L11.1075 17.0762Z" stroke="#000A04" stroke-width="1.5" stroke-linecap="round" stroke-linejoin="round"/>
</svg>
